<?xml version="1.0" encoding="utf-8" standalone="no"?>
<!DOCTYPE svg PUBLIC "-//W3C//DTD SVG 1.1//EN"
  "http://www.w3.org/Graphics/SVG/1.1/DTD/svg11.dtd">
<!-- Created with matplotlib (http://matplotlib.org/) -->
<svg height="576pt" version="1.1" viewBox="0 0 720 576" width="720pt" xmlns="http://www.w3.org/2000/svg" xmlns:xlink="http://www.w3.org/1999/xlink">
 <defs>
  <style type="text/css">
*{stroke-linecap:butt;stroke-linejoin:round;}
  </style>
 </defs>
 <g id="figure_1">
  <g id="patch_1">
   <path d="M 0 576 
L 720 576 
L 720 0 
L 0 0 
z
" style="fill:#ffffff;"/>
  </g>
  <g id="axes_1">
   <g id="patch_2">
    <path d="M 90 512.64 
L 648 512.64 
L 648 69.12 
L 90 69.12 
z
" style="fill:#ffffff;"/>
   </g>
   <g id="matplotlib.axis_1">
    <g id="xtick_1">
     <g id="line2d_1">
      <defs>
       <path d="M 0 0 
L 0 -6 
" id="m7ef9ad5270" style="stroke:#262626;"/>
      </defs>
      <g>
       <use style="fill:#262626;stroke:#262626;" x="115.363636" xlink:href="#m7ef9ad5270" y="512.64"/>
      </g>
     </g>
     <g id="text_1">
      <!-- 0 -->
      <defs>
       <path d="M 34.8125 4.296875 
Q 40.671875 4.296875 42.84375 9.609375 
Q 45.015625 14.9375 45.015625 36.375 
Q 45.015625 57.671875 42.84375 63.078125 
Q 40.671875 68.5 34.8125 68.5 
Q 28.953125 68.5 26.78125 63.171875 
Q 24.609375 57.859375 24.609375 36.375 
Q 24.609375 14.9375 26.78125 9.609375 
Q 28.953125 4.296875 34.8125 4.296875 
z
M 34.8125 -1.421875 
Q 20.21875 -1.421875 12.453125 8.3125 
Q 4.6875 18.0625 4.6875 36.375 
Q 4.6875 54.6875 12.453125 64.453125 
Q 20.21875 74.21875 34.8125 74.21875 
Q 49.359375 74.21875 57.125 64.453125 
Q 64.890625 54.6875 64.890625 36.375 
Q 64.890625 18.0625 57.125 8.3125 
Q 49.359375 -1.421875 34.8125 -1.421875 
z
" id="DejaVuSerif-Bold-30"/>
      </defs>
      <g style="fill:#262626;" transform="translate(110.145277 531.037656)scale(0.15 -0.15)">
       <use xlink:href="#DejaVuSerif-Bold-30"/>
      </g>
     </g>
    </g>
    <g id="xtick_2">
     <g id="line2d_2">
      <g>
       <use style="fill:#262626;stroke:#262626;" x="179.027382" xlink:href="#m7ef9ad5270" y="512.64"/>
      </g>
     </g>
     <g id="text_2">
      <!-- 250 -->
      <defs>
       <path d="M 13.1875 54.890625 
L 7.328125 54.890625 
L 7.328125 70.609375 
Q 13.28125 72.40625 19.109375 73.3125 
Q 24.953125 74.21875 30.90625 74.21875 
Q 44.828125 74.21875 52.609375 68.53125 
Q 60.40625 62.84375 60.40625 52.6875 
Q 60.40625 45.453125 56.109375 39.71875 
Q 51.8125 33.984375 39.703125 26.125 
L 19.390625 12.796875 
L 53.90625 12.796875 
L 53.90625 21.390625 
L 60.59375 21.390625 
L 60.59375 0 
L 6.6875 0 
L 6.6875 11.921875 
L 17.484375 19.390625 
Q 31.296875 28.90625 35.890625 35.59375 
Q 40.484375 42.28125 40.484375 51.21875 
Q 40.484375 59.671875 36.984375 64.078125 
Q 33.5 68.5 26.8125 68.5 
Q 21.046875 68.5 17.578125 65.015625 
Q 14.109375 61.53125 13.1875 54.890625 
z
" id="DejaVuSerif-Bold-32"/>
       <path d="M 56.390625 72.90625 
L 56.390625 60.109375 
L 17.390625 60.109375 
L 17.390625 44.09375 
Q 20.609375 46.578125 24.5625 47.84375 
Q 28.515625 49.125 32.90625 49.125 
Q 46.390625 49.125 54.203125 42.3125 
Q 62.015625 35.5 62.015625 23.78125 
Q 62.015625 11.859375 54.203125 5.21875 
Q 46.390625 -1.421875 32.328125 -1.421875 
Q 26.375 -1.421875 20.484375 -0.4375 
Q 14.59375 0.53125 8.203125 2.59375 
L 8.203125 18.5 
L 14.0625 18.5 
Q 14.359375 11.328125 17.796875 7.8125 
Q 21.234375 4.296875 27.984375 4.296875 
Q 35.15625 4.296875 38.625 9.109375 
Q 42.09375 13.921875 42.09375 23.78125 
Q 42.09375 33.5 38.6875 38.296875 
Q 35.296875 43.109375 28.421875 43.109375 
Q 24.703125 43.109375 21.796875 41.578125 
Q 18.890625 40.046875 16.40625 36.8125 
L 11.53125 36.8125 
L 11.53125 72.90625 
z
" id="DejaVuSerif-Bold-35"/>
      </defs>
      <g style="fill:#262626;" transform="translate(163.372304 531.037656)scale(0.15 -0.15)">
       <use xlink:href="#DejaVuSerif-Bold-32"/>
       <use x="69.580078" xlink:href="#DejaVuSerif-Bold-35"/>
       <use x="139.160156" xlink:href="#DejaVuSerif-Bold-30"/>
      </g>
     </g>
    </g>
    <g id="xtick_3">
     <g id="line2d_3">
      <g>
       <use style="fill:#262626;stroke:#262626;" x="242.691128" xlink:href="#m7ef9ad5270" y="512.64"/>
      </g>
     </g>
     <g id="text_3">
      <!-- 500 -->
      <g style="fill:#262626;" transform="translate(227.03605 531.037656)scale(0.15 -0.15)">
       <use xlink:href="#DejaVuSerif-Bold-35"/>
       <use x="69.580078" xlink:href="#DejaVuSerif-Bold-30"/>
       <use x="139.160156" xlink:href="#DejaVuSerif-Bold-30"/>
      </g>
     </g>
    </g>
    <g id="xtick_4">
     <g id="line2d_4">
      <g>
       <use style="fill:#262626;stroke:#262626;" x="306.354874" xlink:href="#m7ef9ad5270" y="512.64"/>
      </g>
     </g>
     <g id="text_4">
      <!-- 750 -->
      <defs>
       <path d="M 61.28125 60.5 
L 31.203125 0 
L 21.296875 0 
L 50.59375 59.078125 
L 14.59375 59.078125 
L 14.59375 49.21875 
L 7.90625 49.21875 
L 7.90625 72.90625 
L 61.28125 72.90625 
z
" id="DejaVuSerif-Bold-37"/>
      </defs>
      <g style="fill:#262626;" transform="translate(290.699796 531.037656)scale(0.15 -0.15)">
       <use xlink:href="#DejaVuSerif-Bold-37"/>
       <use x="69.580078" xlink:href="#DejaVuSerif-Bold-35"/>
       <use x="139.160156" xlink:href="#DejaVuSerif-Bold-30"/>
      </g>
     </g>
    </g>
    <g id="xtick_5">
     <g id="line2d_5">
      <g>
       <use style="fill:#262626;stroke:#262626;" x="370.01862" xlink:href="#m7ef9ad5270" y="512.64"/>
      </g>
     </g>
     <g id="text_5">
      <!-- 1000 -->
      <defs>
       <path d="M 13.71875 0 
L 13.71875 5.90625 
L 27.390625 5.90625 
L 27.390625 64.890625 
L 12.203125 55.90625 
L 12.203125 63.1875 
L 30.515625 74.21875 
L 45.90625 74.21875 
L 45.90625 5.90625 
L 59.625 5.90625 
L 59.625 0 
z
" id="DejaVuSerif-Bold-31"/>
      </defs>
      <g style="fill:#262626;" transform="translate(349.145182 531.037656)scale(0.15 -0.15)">
       <use xlink:href="#DejaVuSerif-Bold-31"/>
       <use x="69.580078" xlink:href="#DejaVuSerif-Bold-30"/>
       <use x="139.160156" xlink:href="#DejaVuSerif-Bold-30"/>
       <use x="208.740234" xlink:href="#DejaVuSerif-Bold-30"/>
      </g>
     </g>
    </g>
    <g id="xtick_6">
     <g id="line2d_6">
      <g>
       <use style="fill:#262626;stroke:#262626;" x="433.682366" xlink:href="#m7ef9ad5270" y="512.64"/>
      </g>
     </g>
     <g id="text_6">
      <!-- 1250 -->
      <g style="fill:#262626;" transform="translate(412.808928 531.037656)scale(0.15 -0.15)">
       <use xlink:href="#DejaVuSerif-Bold-31"/>
       <use x="69.580078" xlink:href="#DejaVuSerif-Bold-32"/>
       <use x="139.160156" xlink:href="#DejaVuSerif-Bold-35"/>
       <use x="208.740234" xlink:href="#DejaVuSerif-Bold-30"/>
      </g>
     </g>
    </g>
    <g id="xtick_7">
     <g id="line2d_7">
      <g>
       <use style="fill:#262626;stroke:#262626;" x="497.346112" xlink:href="#m7ef9ad5270" y="512.64"/>
      </g>
     </g>
     <g id="text_7">
      <!-- 1500 -->
      <g style="fill:#262626;" transform="translate(476.472674 531.037656)scale(0.15 -0.15)">
       <use xlink:href="#DejaVuSerif-Bold-31"/>
       <use x="69.580078" xlink:href="#DejaVuSerif-Bold-35"/>
       <use x="139.160156" xlink:href="#DejaVuSerif-Bold-30"/>
       <use x="208.740234" xlink:href="#DejaVuSerif-Bold-30"/>
      </g>
     </g>
    </g>
    <g id="xtick_8">
     <g id="line2d_8">
      <g>
       <use style="fill:#262626;stroke:#262626;" x="561.009858" xlink:href="#m7ef9ad5270" y="512.64"/>
      </g>
     </g>
     <g id="text_8">
      <!-- 1750 -->
      <g style="fill:#262626;" transform="translate(540.13642 531.037656)scale(0.15 -0.15)">
       <use xlink:href="#DejaVuSerif-Bold-31"/>
       <use x="69.580078" xlink:href="#DejaVuSerif-Bold-37"/>
       <use x="139.160156" xlink:href="#DejaVuSerif-Bold-35"/>
       <use x="208.740234" xlink:href="#DejaVuSerif-Bold-30"/>
      </g>
     </g>
    </g>
    <g id="xtick_9">
     <g id="line2d_9">
      <g>
       <use style="fill:#262626;stroke:#262626;" x="624.673604" xlink:href="#m7ef9ad5270" y="512.64"/>
      </g>
     </g>
     <g id="text_9">
      <!-- 2000 -->
      <g style="fill:#262626;" transform="translate(603.800166 531.037656)scale(0.15 -0.15)">
       <use xlink:href="#DejaVuSerif-Bold-32"/>
       <use x="69.580078" xlink:href="#DejaVuSerif-Bold-30"/>
       <use x="139.160156" xlink:href="#DejaVuSerif-Bold-30"/>
       <use x="208.740234" xlink:href="#DejaVuSerif-Bold-30"/>
      </g>
     </g>
    </g>
    <g id="text_10">
     <!-- Iterations -->
     <defs>
      <path d="M 4.6875 0 
L 4.6875 5.90625 
L 14.015625 5.90625 
L 14.015625 67 
L 4.6875 67 
L 4.6875 72.90625 
L 42.1875 72.90625 
L 42.1875 67 
L 32.8125 67 
L 32.8125 5.90625 
L 42.1875 5.90625 
L 42.1875 0 
z
" id="DejaVuSerif-Bold-49"/>
      <path d="M 9.90625 46 
L 2.390625 46 
L 2.390625 51.90625 
L 9.90625 51.90625 
L 9.90625 68.015625 
L 27.203125 68.015625 
L 27.203125 51.90625 
L 41.609375 51.90625 
L 41.609375 46 
L 27.203125 46 
L 27.203125 14.203125 
Q 27.203125 7.421875 28.265625 5.765625 
Q 29.34375 4.109375 32.171875 4.109375 
Q 35.296875 4.109375 36.8125 6.203125 
Q 38.328125 8.296875 38.421875 12.703125 
L 45.703125 12.703125 
Q 45.265625 4.890625 41.421875 1.734375 
Q 37.59375 -1.421875 28.21875 -1.421875 
Q 17.53125 -1.421875 13.71875 1.921875 
Q 9.90625 5.28125 9.90625 14.203125 
z
" id="DejaVuSerif-Bold-74"/>
      <path d="M 40.09375 29.296875 
Q 40.09375 39.546875 38.1875 43.671875 
Q 36.28125 47.796875 31.6875 47.796875 
Q 27.25 47.796875 25.3125 43.75 
Q 23.390625 39.703125 23.390625 30.171875 
L 23.390625 29.296875 
z
M 59.078125 23.484375 
L 23.390625 23.484375 
L 23.390625 23.09375 
Q 23.390625 13.03125 26.40625 8.5625 
Q 29.4375 4.109375 36.1875 4.109375 
Q 41.796875 4.109375 45.265625 7.078125 
Q 48.734375 10.0625 49.703125 15.71875 
L 57.8125 15.71875 
Q 55.71875 6.890625 49.46875 2.734375 
Q 43.21875 -1.421875 31.984375 -1.421875 
Q 18.5 -1.421875 11.296875 5.6875 
Q 4.109375 12.796875 4.109375 25.984375 
Q 4.109375 38.875 11.46875 46.09375 
Q 18.84375 53.328125 31.984375 53.328125 
Q 44.875 53.328125 51.75 45.734375 
Q 58.640625 38.140625 59.078125 23.484375 
z
" id="DejaVuSerif-Bold-65"/>
      <path d="M 53.71875 52.484375 
L 53.71875 37.015625 
L 48.1875 37.015625 
Q 47.90625 41.15625 45.953125 43.1875 
Q 44 45.21875 40.28125 45.21875 
Q 34.625 45.21875 31.34375 40.234375 
Q 28.078125 35.25 28.078125 26.421875 
L 28.078125 5.90625 
L 37.5 5.90625 
L 37.5 0 
L 3.421875 0 
L 3.421875 5.90625 
L 10.796875 5.90625 
L 10.796875 46 
L 2.875 46 
L 2.875 51.90625 
L 28.078125 51.90625 
L 28.078125 42.671875 
Q 30.609375 48.09375 34.78125 50.703125 
Q 38.96875 53.328125 45.015625 53.328125 
Q 46.53125 53.328125 48.703125 53.09375 
Q 50.875 52.875 53.71875 52.484375 
z
" id="DejaVuSerif-Bold-72"/>
      <path d="M 55.078125 31.890625 
L 55.078125 5.90625 
L 62.5 5.90625 
L 62.5 0 
L 37.796875 0 
L 37.796875 6.59375 
Q 34.375 2.484375 30.171875 0.53125 
Q 25.984375 -1.421875 20.609375 -1.421875 
Q 12.640625 -1.421875 8.375 2.84375 
Q 4.109375 7.125 4.109375 15.09375 
Q 4.109375 23.828125 10.234375 28.171875 
Q 16.359375 32.515625 28.71875 32.515625 
L 37.796875 32.515625 
L 37.796875 35.59375 
Q 37.796875 41.890625 34.8125 44.890625 
Q 31.84375 47.90625 25.59375 47.90625 
Q 20.40625 47.90625 17.59375 45.78125 
Q 14.796875 43.65625 13.625 38.8125 
L 8.109375 38.8125 
L 8.109375 50 
Q 12.75 51.65625 17.71875 52.484375 
Q 22.703125 53.328125 28.21875 53.328125 
Q 42.140625 53.328125 48.609375 48.140625 
Q 55.078125 42.96875 55.078125 31.890625 
z
M 37.796875 16.3125 
L 37.796875 26.703125 
L 31.296875 26.703125 
Q 26.46875 26.703125 23.875 24.0625 
Q 21.296875 21.4375 21.296875 16.5 
Q 21.296875 11.578125 23.171875 9.125 
Q 25.046875 6.6875 28.90625 6.6875 
Q 32.90625 6.6875 35.34375 9.328125 
Q 37.796875 11.96875 37.796875 16.3125 
z
" id="DejaVuSerif-Bold-61"/>
      <path d="M 9.1875 66.609375 
Q 9.1875 70.5625 11.921875 73.265625 
Q 14.65625 75.984375 18.609375 75.984375 
Q 22.46875 75.984375 25.171875 73.265625 
Q 27.875 70.5625 27.875 66.609375 
Q 27.875 62.75 25.171875 60.03125 
Q 22.46875 57.328125 18.609375 57.328125 
Q 14.65625 57.328125 11.921875 60.015625 
Q 9.1875 62.703125 9.1875 66.609375 
z
M 28.078125 5.90625 
L 35.5 5.90625 
L 35.5 0 
L 3.421875 0 
L 3.421875 5.90625 
L 10.796875 5.90625 
L 10.796875 46 
L 3.421875 46 
L 3.421875 51.90625 
L 28.078125 51.90625 
z
" id="DejaVuSerif-Bold-69"/>
      <path d="M 33.40625 4.109375 
Q 38.875 4.109375 41.09375 8.796875 
Q 43.3125 13.484375 43.3125 25.984375 
Q 43.3125 38.484375 41.109375 43.140625 
Q 38.921875 47.796875 33.40625 47.796875 
Q 27.875 47.796875 25.625 43.078125 
Q 23.390625 38.375 23.390625 25.984375 
Q 23.390625 13.578125 25.625 8.84375 
Q 27.875 4.109375 33.40625 4.109375 
z
M 33.40625 -1.421875 
Q 19.671875 -1.421875 11.890625 5.875 
Q 4.109375 13.1875 4.109375 25.984375 
Q 4.109375 38.8125 11.890625 46.0625 
Q 19.671875 53.328125 33.40625 53.328125 
Q 47.171875 53.328125 54.9375 46.0625 
Q 62.703125 38.8125 62.703125 25.984375 
Q 62.703125 13.1875 54.90625 5.875 
Q 47.125 -1.421875 33.40625 -1.421875 
z
" id="DejaVuSerif-Bold-6f"/>
      <path d="M 3.421875 0 
L 3.421875 5.90625 
L 10.796875 5.90625 
L 10.796875 46 
L 3.421875 46 
L 3.421875 51.90625 
L 28.078125 51.90625 
L 28.078125 44.578125 
Q 31.203125 49.21875 35.203125 51.265625 
Q 39.203125 53.328125 45.3125 53.328125 
Q 54.046875 53.328125 58.515625 48.171875 
Q 62.984375 43.015625 62.984375 33.015625 
L 62.984375 5.90625 
L 70.40625 5.90625 
L 70.40625 0 
L 39.40625 0 
L 39.40625 5.90625 
L 45.703125 5.90625 
L 45.703125 33.5 
Q 45.703125 40.09375 44.015625 42.65625 
Q 42.328125 45.21875 38.1875 45.21875 
Q 32.953125 45.21875 30.515625 41.375 
Q 28.078125 37.546875 28.078125 29.203125 
L 28.078125 5.90625 
L 34.421875 5.90625 
L 34.421875 0 
z
" id="DejaVuSerif-Bold-6e"/>
      <path d="M 4.6875 1.515625 
L 4.6875 16.015625 
L 10.203125 16.015625 
Q 10.890625 10.203125 14.546875 7.15625 
Q 18.21875 4.109375 24.515625 4.109375 
Q 29.78125 4.109375 32.59375 5.9375 
Q 35.40625 7.765625 35.40625 11.1875 
Q 35.40625 14.3125 33.625 16.015625 
Q 31.84375 17.71875 26.703125 19 
L 19.578125 20.796875 
Q 11.53125 22.796875 7.90625 26.53125 
Q 4.296875 30.28125 4.296875 36.625 
Q 4.296875 45.0625 10.15625 49.1875 
Q 16.015625 53.328125 28.21875 53.328125 
Q 32.8125 53.328125 38.015625 52.5625 
Q 43.21875 51.8125 49.515625 50.203125 
L 49.515625 37.109375 
L 44 37.109375 
Q 43.5625 42.4375 40.203125 45.109375 
Q 36.859375 47.796875 30.609375 47.796875 
Q 25.34375 47.796875 22.625 46.109375 
Q 19.921875 44.4375 19.921875 41.21875 
Q 19.921875 38.578125 21.484375 37.0625 
Q 23.046875 35.546875 27.09375 34.515625 
L 34.1875 32.71875 
Q 44.390625 30.125 48.296875 26.3125 
Q 52.203125 22.515625 52.203125 15.71875 
Q 52.203125 6.9375 45.921875 2.75 
Q 39.65625 -1.421875 26.421875 -1.421875 
Q 21.578125 -1.421875 16.15625 -0.6875 
Q 10.75 0.046875 4.6875 1.515625 
z
" id="DejaVuSerif-Bold-73"/>
     </defs>
     <g style="fill:#262626;" transform="translate(302.525625 556.393438)scale(0.24 -0.24)">
      <use xlink:href="#DejaVuSerif-Bold-49"/>
      <use x="46.777344" xlink:href="#DejaVuSerif-Bold-74"/>
      <use x="92.96875" xlink:href="#DejaVuSerif-Bold-65"/>
      <use x="156.591797" xlink:href="#DejaVuSerif-Bold-72"/>
      <use x="209.277344" xlink:href="#DejaVuSerif-Bold-61"/>
      <use x="274.072266" xlink:href="#DejaVuSerif-Bold-74"/>
      <use x="320.263672" xlink:href="#DejaVuSerif-Bold-69"/>
      <use x="358.251953" xlink:href="#DejaVuSerif-Bold-6f"/>
      <use x="424.951172" xlink:href="#DejaVuSerif-Bold-6e"/>
      <use x="497.65625" xlink:href="#DejaVuSerif-Bold-73"/>
     </g>
    </g>
   </g>
   <g id="matplotlib.axis_2">
    <g id="ytick_1">
     <g id="line2d_10">
      <defs>
       <path d="M 0 0 
L 6 0 
" id="m51679ab153" style="stroke:#262626;"/>
      </defs>
      <g>
       <use style="fill:#262626;stroke:#262626;" x="90" xlink:href="#m51679ab153" y="495.311317"/>
      </g>
     </g>
     <g id="line2d_11">
      <defs>
       <path d="M 0 0 
L -6 0 
" id="m3f263e045c" style="stroke:#262626;"/>
      </defs>
      <g>
       <use style="fill:#262626;stroke:#262626;" x="648" xlink:href="#m3f263e045c" y="495.311317"/>
      </g>
     </g>
     <g id="text_11">
      <!-- 0 -->
      <g style="fill:#262626;" transform="translate(72.563281 501.010145)scale(0.15 -0.15)">
       <use xlink:href="#DejaVuSerif-Bold-30"/>
      </g>
     </g>
    </g>
    <g id="ytick_2">
     <g id="line2d_12">
      <g>
       <use style="fill:#262626;stroke:#262626;" x="90" xlink:href="#m51679ab153" y="437.225658"/>
      </g>
     </g>
     <g id="line2d_13">
      <g>
       <use style="fill:#262626;stroke:#262626;" x="648" xlink:href="#m3f263e045c" y="437.225658"/>
      </g>
     </g>
     <g id="text_12">
      <!-- 2 -->
      <g style="fill:#262626;" transform="translate(72.563281 442.924486)scale(0.15 -0.15)">
       <use xlink:href="#DejaVuSerif-Bold-32"/>
      </g>
     </g>
    </g>
    <g id="ytick_3">
     <g id="line2d_14">
      <g>
       <use style="fill:#262626;stroke:#262626;" x="90" xlink:href="#m51679ab153" y="379.139999"/>
      </g>
     </g>
     <g id="line2d_15">
      <g>
       <use style="fill:#262626;stroke:#262626;" x="648" xlink:href="#m3f263e045c" y="379.139999"/>
      </g>
     </g>
     <g id="text_13">
      <!-- 4 -->
      <defs>
       <path d="M 63.8125 0 
L 23.6875 0 
L 23.6875 5.90625 
L 34.515625 5.90625 
L 34.515625 19.1875 
L 4.109375 19.1875 
L 4.109375 24.8125 
L 34.625 74.21875 
L 52.984375 74.21875 
L 52.984375 25.484375 
L 65.484375 25.484375 
L 65.484375 19.1875 
L 52.984375 19.1875 
L 52.984375 5.90625 
L 63.8125 5.90625 
z
M 34.515625 25.484375 
L 34.515625 60.890625 
L 12.796875 25.484375 
z
" id="DejaVuSerif-Bold-34"/>
      </defs>
      <g style="fill:#262626;" transform="translate(72.563281 384.838827)scale(0.15 -0.15)">
       <use xlink:href="#DejaVuSerif-Bold-34"/>
      </g>
     </g>
    </g>
    <g id="ytick_4">
     <g id="line2d_16">
      <g>
       <use style="fill:#262626;stroke:#262626;" x="90" xlink:href="#m51679ab153" y="321.05434"/>
      </g>
     </g>
     <g id="line2d_17">
      <g>
       <use style="fill:#262626;stroke:#262626;" x="648" xlink:href="#m3f263e045c" y="321.05434"/>
      </g>
     </g>
     <g id="text_14">
      <!-- 6 -->
      <defs>
       <path d="M 24.609375 43.21875 
Q 27.78125 45.75 31.703125 47.015625 
Q 35.640625 48.296875 40.28125 48.296875 
Q 51.46875 48.296875 57.828125 41.75 
Q 64.203125 35.203125 64.203125 23.78125 
Q 64.203125 11.71875 57.03125 5.140625 
Q 49.859375 -1.421875 36.625 -1.421875 
Q 21.6875 -1.421875 13.984375 7.59375 
Q 6.296875 16.609375 6.296875 34.078125 
Q 6.296875 53.953125 14.84375 64.078125 
Q 23.390625 74.21875 40.1875 74.21875 
Q 44.578125 74.21875 49.609375 73.484375 
Q 54.640625 72.75 60.40625 71.296875 
L 60.40625 58.40625 
L 54.5 58.40625 
Q 53.265625 63.375 49.875 65.9375 
Q 46.484375 68.5 41.109375 68.5 
Q 32.421875 68.5 28.53125 62.546875 
Q 24.65625 56.59375 24.609375 43.21875 
z
M 35.5 4.296875 
Q 40.53125 4.296875 42.671875 8.5625 
Q 44.828125 12.84375 44.828125 23.390625 
Q 44.828125 33.9375 42.671875 38.203125 
Q 40.53125 42.484375 35.5 42.484375 
Q 30.46875 42.484375 28.34375 38.203125 
Q 26.21875 33.9375 26.21875 23.390625 
Q 26.21875 12.84375 28.34375 8.5625 
Q 30.46875 4.296875 35.5 4.296875 
z
" id="DejaVuSerif-Bold-36"/>
      </defs>
      <g style="fill:#262626;" transform="translate(72.563281 326.753168)scale(0.15 -0.15)">
       <use xlink:href="#DejaVuSerif-Bold-36"/>
      </g>
     </g>
    </g>
    <g id="ytick_5">
     <g id="line2d_18">
      <g>
       <use style="fill:#262626;stroke:#262626;" x="90" xlink:href="#m51679ab153" y="262.968681"/>
      </g>
     </g>
     <g id="line2d_19">
      <g>
       <use style="fill:#262626;stroke:#262626;" x="648" xlink:href="#m3f263e045c" y="262.968681"/>
      </g>
     </g>
     <g id="text_15">
      <!-- 8 -->
      <defs>
       <path d="M 46.484375 38.8125 
Q 55.171875 37.40625 59.6875 32.421875 
Q 64.203125 27.4375 64.203125 19.390625 
Q 64.203125 9.328125 56.609375 3.953125 
Q 49.03125 -1.421875 34.71875 -1.421875 
Q 20.40625 -1.421875 12.78125 3.953125 
Q 5.171875 9.328125 5.171875 19.390625 
Q 5.171875 27.4375 9.71875 32.421875 
Q 14.265625 37.40625 22.90625 38.8125 
Q 15.234375 40.578125 11.421875 44.703125 
Q 7.625 48.828125 7.625 55.171875 
Q 7.625 64.453125 14.546875 69.328125 
Q 21.484375 74.21875 34.71875 74.21875 
Q 47.90625 74.21875 54.859375 69.328125 
Q 61.8125 64.453125 61.8125 55.171875 
Q 61.8125 48.828125 57.984375 44.703125 
Q 54.15625 40.578125 46.484375 38.8125 
z
M 42.921875 54.984375 
Q 42.921875 62.703125 41.0625 65.59375 
Q 39.203125 68.5 34.71875 68.5 
Q 30.171875 68.5 28.34375 65.59375 
Q 26.515625 62.703125 26.515625 54.984375 
Q 26.515625 47.3125 28.34375 44.453125 
Q 30.171875 41.609375 34.71875 41.609375 
Q 39.265625 41.609375 41.09375 44.453125 
Q 42.921875 47.3125 42.921875 54.984375 
z
M 44.828125 20.21875 
Q 44.828125 29.15625 42.546875 32.515625 
Q 40.28125 35.890625 34.71875 35.890625 
Q 29.109375 35.890625 26.859375 32.515625 
Q 24.609375 29.15625 24.609375 20.21875 
Q 24.609375 11.1875 26.875 7.734375 
Q 29.15625 4.296875 34.71875 4.296875 
Q 40.234375 4.296875 42.53125 7.734375 
Q 44.828125 11.1875 44.828125 20.21875 
z
" id="DejaVuSerif-Bold-38"/>
      </defs>
      <g style="fill:#262626;" transform="translate(72.563281 268.66751)scale(0.15 -0.15)">
       <use xlink:href="#DejaVuSerif-Bold-38"/>
      </g>
     </g>
    </g>
    <g id="ytick_6">
     <g id="line2d_20">
      <g>
       <use style="fill:#262626;stroke:#262626;" x="90" xlink:href="#m51679ab153" y="204.883023"/>
      </g>
     </g>
     <g id="line2d_21">
      <g>
       <use style="fill:#262626;stroke:#262626;" x="648" xlink:href="#m3f263e045c" y="204.883023"/>
      </g>
     </g>
     <g id="text_16">
      <!-- 10 -->
      <g style="fill:#262626;" transform="translate(62.126563 210.581851)scale(0.15 -0.15)">
       <use xlink:href="#DejaVuSerif-Bold-31"/>
       <use x="69.580078" xlink:href="#DejaVuSerif-Bold-30"/>
      </g>
     </g>
    </g>
    <g id="ytick_7">
     <g id="line2d_22">
      <g>
       <use style="fill:#262626;stroke:#262626;" x="90" xlink:href="#m51679ab153" y="146.797364"/>
      </g>
     </g>
     <g id="line2d_23">
      <g>
       <use style="fill:#262626;stroke:#262626;" x="648" xlink:href="#m3f263e045c" y="146.797364"/>
      </g>
     </g>
     <g id="text_17">
      <!-- 12 -->
      <g style="fill:#262626;" transform="translate(62.126563 152.496192)scale(0.15 -0.15)">
       <use xlink:href="#DejaVuSerif-Bold-31"/>
       <use x="69.580078" xlink:href="#DejaVuSerif-Bold-32"/>
      </g>
     </g>
    </g>
    <g id="ytick_8">
     <g id="line2d_24">
      <g>
       <use style="fill:#262626;stroke:#262626;" x="90" xlink:href="#m51679ab153" y="88.711705"/>
      </g>
     </g>
     <g id="line2d_25">
      <g>
       <use style="fill:#262626;stroke:#262626;" x="648" xlink:href="#m3f263e045c" y="88.711705"/>
      </g>
     </g>
     <g id="text_18">
      <!-- 14 -->
      <g style="fill:#262626;" transform="translate(62.126563 94.410533)scale(0.15 -0.15)">
       <use xlink:href="#DejaVuSerif-Bold-31"/>
       <use x="69.580078" xlink:href="#DejaVuSerif-Bold-34"/>
      </g>
     </g>
    </g>
    <g id="text_19">
     <!-- Loss -->
     <defs>
      <path d="M 4.6875 0 
L 4.6875 5.90625 
L 14.015625 5.90625 
L 14.015625 67 
L 4.6875 67 
L 4.6875 72.90625 
L 42.1875 72.90625 
L 42.1875 67 
L 32.8125 67 
L 32.8125 6.6875 
L 61.53125 6.6875 
L 61.53125 18.21875 
L 68.109375 18.21875 
L 68.109375 0 
z
" id="DejaVuSerif-Bold-4c"/>
     </defs>
     <g style="fill:#262626;" transform="translate(53.135312 320.833125)rotate(-90)scale(0.24 -0.24)">
      <use xlink:href="#DejaVuSerif-Bold-4c"/>
      <use x="70.3125" xlink:href="#DejaVuSerif-Bold-6f"/>
      <use x="137.011719" xlink:href="#DejaVuSerif-Bold-73"/>
      <use x="193.310547" xlink:href="#DejaVuSerif-Bold-73"/>
     </g>
    </g>
   </g>
   <g id="line2d_26">
    <path clip-path="url(#pe40ea8d385)" d="M 115.363636 89.28 
L 118.419496 456.85706 
L 124.531216 464.67481 
L 127.587076 467.81045 
L 130.642935 467.573726 
L 133.698795 471.494501 
L 136.754655 472.475136 
L 139.810515 474.910236 
L 142.866375 472.91782 
L 145.922234 476.931919 
L 148.978094 474.040781 
L 152.033954 475.144926 
L 155.089814 477.484339 
L 158.145674 480.15061 
L 161.201533 481.418986 
L 164.257393 481.721067 
L 167.313253 469.693806 
L 170.369113 481.39959 
L 173.424973 482.668934 
L 176.480832 479.646005 
L 179.536692 481.203927 
L 182.592552 484.21246 
L 185.648412 478.34112 
L 188.704272 485.411356 
L 191.760131 483.368363 
L 194.815991 483.01939 
L 197.871851 480.475416 
L 200.927711 484.553905 
L 203.983571 482.330293 
L 207.03943 481.645652 
L 210.09529 485.220714 
L 213.15115 473.569548 
L 216.20701 482.203218 
L 219.26287 482.403847 
L 222.318729 484.411768 
L 225.374589 485.203274 
L 228.430449 486.543083 
L 231.486309 477.577092 
L 234.542169 454.728722 
L 237.598028 484.985781 
L 240.653888 485.39159 
L 243.709748 480.724741 
L 246.765608 486.068901 
L 249.821468 485.07134 
L 252.877327 485.719395 
L 255.933187 483.445438 
L 258.989047 483.143767 
L 262.044907 486.595348 
L 265.100767 486.078233 
L 268.156627 487.790857 
L 271.212486 486.369612 
L 274.268346 486.473888 
L 277.324206 487.569855 
L 280.380066 486.169644 
L 283.435926 480.714846 
L 286.491785 486.230329 
L 289.547645 487.443438 
L 292.603505 485.645635 
L 295.659365 486.670372 
L 298.715225 486.520918 
L 301.771084 487.23094 
L 304.826944 486.242488 
L 307.882804 485.972171 
L 310.938664 486.73617 
L 313.994524 487.746818 
L 317.050383 487.660763 
L 320.106243 486.744689 
L 323.162103 486.225 
L 326.217963 486.657536 
L 329.273823 485.213513 
L 332.329682 486.228344 
L 335.385542 486.914078 
L 338.441402 487.391872 
L 341.497262 486.175245 
L 344.553122 485.930707 
L 347.608981 486.816381 
L 353.720701 485.228043 
L 356.776561 486.210431 
L 359.832421 487.378776 
L 365.94414 488.089439 
L 369 484.144778 
L 372.05586 488.364119 
L 375.11172 486.416475 
L 378.167579 487.916696 
L 381.223439 484.551316 
L 384.279299 486.421121 
L 387.335159 487.608505 
L 390.391019 487.529193 
L 393.446878 487.329593 
L 396.502738 487.320465 
L 399.558598 488.537047 
L 402.614458 488.727447 
L 405.670318 486.597765 
L 408.726177 486.241154 
L 411.782037 486.771693 
L 414.837897 488.12668 
L 417.893757 486.330256 
L 420.949617 486.289185 
L 424.005476 487.41444 
L 427.061336 485.744243 
L 433.173056 487.46953 
L 436.228916 488.948431 
L 439.284775 483.523755 
L 442.340635 486.817391 
L 445.396495 486.940429 
L 448.452355 486.155679 
L 451.508215 487.688135 
L 454.564074 487.829577 
L 457.619934 487.683191 
L 460.675794 487.245455 
L 463.731654 488.01086 
L 466.787514 487.456259 
L 469.843373 488.255669 
L 472.899233 484.217469 
L 475.955093 486.887702 
L 479.010953 487.823439 
L 482.066813 487.491769 
L 485.122673 486.060674 
L 488.178532 487.974773 
L 491.234392 487.419583 
L 494.290252 485.383734 
L 497.346112 487.319171 
L 500.401972 486.801897 
L 503.457831 487.189632 
L 506.513691 487.2951 
L 509.569551 486.874106 
L 512.625411 487.342274 
L 515.681271 487.138359 
L 518.73713 483.887135 
L 521.79299 484.674985 
L 524.84885 486.74768 
L 527.90471 486.244383 
L 530.96057 487.146792 
L 534.016429 487.195962 
L 537.072289 483.267314 
L 540.128149 487.902755 
L 546.239869 486.476046 
L 549.295728 484.381389 
L 552.351588 485.72838 
L 555.407448 486.357989 
L 558.463308 486.240163 
L 561.519168 484.973981 
L 564.575027 485.64861 
L 567.630887 486.879279 
L 570.686747 486.962423 
L 573.742607 486.735075 
L 576.798467 485.802685 
L 579.854326 486.88826 
L 582.910186 486.740427 
L 585.966046 485.263302 
L 589.021906 487.019185 
L 595.133625 486.350127 
L 598.189485 487.668064 
L 601.245345 486.77679 
L 607.357065 486.664459 
L 610.412924 487.057654 
L 613.468784 486.160534 
L 616.524644 484.92411 
L 619.580504 486.726319 
L 622.636364 485.718405 
L 622.636364 485.718405 
" style="fill:none;stroke:#0000ff;stroke-linecap:round;stroke-width:1.5;"/>
   </g>
   <g id="line2d_27">
    <path clip-path="url(#pe40ea8d385)" d="M 115.363636 437.209815 
L 118.419496 453.417292 
L 121.475356 458.960888 
L 124.531216 464.833665 
L 127.587076 467.482427 
L 130.642935 469.04295 
L 133.698795 474.091397 
L 136.754655 469.238497 
L 139.810515 477.123412 
L 142.866375 475.400987 
L 145.922234 476.155705 
L 148.978094 477.431322 
L 152.033954 479.17857 
L 155.089814 475.803596 
L 158.145674 480.257835 
L 161.201533 477.376707 
L 167.313253 479.683168 
L 170.369113 482.091715 
L 173.424973 481.69444 
L 176.480832 483.440448 
L 179.536692 483.376118 
L 182.592552 481.012448 
L 185.648412 480.591239 
L 188.704272 478.176807 
L 191.760131 483.380644 
L 194.815991 482.645278 
L 197.871851 479.132803 
L 200.927711 482.36279 
L 203.983571 485.064117 
L 207.03943 485.076892 
L 210.09529 484.596815 
L 213.15115 483.191135 
L 216.20701 477.069703 
L 219.26287 481.201246 
L 225.374589 487.002762 
L 228.430449 487.595943 
L 231.486309 483.829945 
L 234.542169 485.130596 
L 237.598028 485.633947 
L 240.653888 484.31059 
L 243.709748 477.272485 
L 246.765608 481.53832 
L 249.821468 485.022259 
L 252.877327 482.692919 
L 255.933187 484.793377 
L 258.989047 484.066983 
L 265.100767 488.483778 
L 268.156627 486.79571 
L 271.212486 488.269 
L 274.268346 485.868626 
L 277.324206 486.739409 
L 280.380066 483.489073 
L 283.435926 487.692567 
L 286.491785 487.986804 
L 289.547645 486.947201 
L 292.603505 489.376428 
L 295.659365 487.252496 
L 298.715225 489.260378 
L 301.771084 485.585345 
L 304.826944 486.815312 
L 307.882804 487.835222 
L 310.938664 489.593503 
L 313.994524 487.589543 
L 317.050383 490.140929 
L 320.106243 488.603404 
L 323.162103 482.724464 
L 326.217963 489.198381 
L 329.273823 484.746816 
L 332.329682 483.399794 
L 335.385542 487.639424 
L 338.441402 488.007189 
L 341.497262 490.935659 
L 344.553122 488.87211 
L 347.608981 489.108861 
L 350.664841 486.728694 
L 353.720701 489.601917 
L 356.776561 490.425528 
L 359.832421 489.048334 
L 362.88828 488.352193 
L 365.94414 485.727802 
L 369 485.196917 
L 372.05586 488.91853 
L 375.11172 488.482789 
L 378.167579 489.673641 
L 381.223439 486.874612 
L 384.279299 486.756821 
L 387.335159 488.79883 
L 390.391019 489.651363 
L 393.446878 490.759198 
L 396.502738 489.130031 
L 399.558598 491.193838 
L 402.614458 491.010644 
L 405.670318 489.932105 
L 408.726177 487.929005 
L 411.782037 489.800214 
L 414.837897 486.157427 
L 417.893757 487.050462 
L 420.949617 488.252977 
L 424.005476 491.749908 
L 427.061336 489.219666 
L 430.117196 489.909028 
L 433.173056 489.619317 
L 436.228916 490.879612 
L 439.284775 483.280884 
L 442.340635 489.682092 
L 445.396495 487.981089 
L 448.452355 490.57228 
L 451.508215 489.811685 
L 454.564074 487.346347 
L 457.619934 491.679658 
L 460.675794 487.373164 
L 463.731654 489.493699 
L 466.787514 487.739898 
L 469.843373 488.319948 
L 472.899233 489.422976 
L 475.955093 489.280591 
L 479.010953 488.958652 
L 482.066813 491.39541 
L 485.122673 486.947967 
L 488.178532 491.655496 
L 491.234392 490.839587 
L 494.290252 489.284475 
L 497.346112 490.107026 
L 500.401972 491.709341 
L 503.457831 489.934895 
L 506.513691 484.663912 
L 509.569551 489.234878 
L 512.625411 492.48 
L 515.681271 485.963758 
L 518.73713 491.267928 
L 521.79299 490.248367 
L 524.84885 486.606562 
L 527.90471 488.088058 
L 530.96057 488.871316 
L 534.016429 490.888565 
L 537.072289 490.546101 
L 540.128149 490.977227 
L 543.184009 490.53966 
L 546.239869 491.200101 
L 549.295728 489.215432 
L 552.351588 492.267283 
L 555.407448 491.857751 
L 558.463308 490.082996 
L 561.519168 491.221647 
L 567.630887 491.254004 
L 570.686747 490.146118 
L 576.798467 491.195534 
L 579.854326 492.215116 
L 582.910186 486.050085 
L 585.966046 487.507547 
L 589.021906 490.208486 
L 592.077766 492.205898 
L 595.133625 490.020327 
L 598.189485 491.712724 
L 601.245345 487.434625 
L 604.301205 490.227582 
L 607.357065 488.817531 
L 610.412924 488.751766 
L 613.468784 490.517213 
L 616.524644 485.735098 
L 619.580504 489.96019 
L 622.636364 488.069818 
L 622.636364 488.069818 
" style="fill:none;stroke:#00bfbf;stroke-linecap:round;stroke-width:1.5;"/>
   </g>
   <g id="patch_3">
    <path d="M 90 512.64 
L 90 69.12 
" style="fill:none;stroke:#262626;stroke-linecap:square;stroke-linejoin:miter;stroke-width:1.25;"/>
   </g>
   <g id="patch_4">
    <path d="M 648 512.64 
L 648 69.12 
" style="fill:none;stroke:#262626;stroke-linecap:square;stroke-linejoin:miter;stroke-width:1.25;"/>
   </g>
   <g id="patch_5">
    <path d="M 90 512.64 
L 648 512.64 
" style="fill:none;stroke:#262626;stroke-linecap:square;stroke-linejoin:miter;stroke-width:1.25;"/>
   </g>
   <g id="patch_6">
    <path d="M 90 69.12 
L 648 69.12 
" style="fill:none;stroke:#262626;stroke-linecap:square;stroke-linejoin:miter;stroke-width:1.25;"/>
   </g>
   <g id="legend_1">
    <g id="patch_7">
     <path d="M 490.55375 160.775 
L 633.2 160.775 
Q 638 160.775 638 155.975 
L 638 87.92 
Q 638 83.12 633.2 83.12 
L 490.55375 83.12 
Q 485.75375 83.12 485.75375 87.92 
L 485.75375 155.975 
Q 485.75375 160.775 490.55375 160.775 
z
" style="fill:#4c4c4c;opacity:0.5;stroke:#4c4c4c;stroke-linejoin:miter;stroke-width:0.3;"/>
    </g>
    <g id="patch_8">
     <path d="M 488.55375 158.775 
L 631.2 158.775 
Q 636 158.775 636 153.975 
L 636 85.92 
Q 636 81.12 631.2 81.12 
L 488.55375 81.12 
Q 483.75375 81.12 483.75375 85.92 
L 483.75375 153.975 
Q 483.75375 158.775 488.55375 158.775 
z
" style="fill:#ffffff;stroke:#000000;stroke-linejoin:miter;stroke-width:0.3;"/>
    </g>
    <g id="line2d_28">
     <path d="M 493.35375 100.55625 
L 541.35375 100.55625 
" style="fill:none;stroke:#0000ff;stroke-linecap:round;stroke-width:1.5;"/>
    </g>
    <g id="line2d_29"/>
    <g id="text_20">
     <!-- test -->
     <g style="fill:#262626;" transform="translate(560.55375 108.95625)scale(0.24 -0.24)">
      <use xlink:href="#DejaVuSerif-Bold-74"/>
      <use x="46.191406" xlink:href="#DejaVuSerif-Bold-65"/>
      <use x="109.814453" xlink:href="#DejaVuSerif-Bold-73"/>
      <use x="166.113281" xlink:href="#DejaVuSerif-Bold-74"/>
     </g>
    </g>
    <g id="line2d_30">
     <path d="M 493.35375 135.78375 
L 541.35375 135.78375 
" style="fill:none;stroke:#00bfbf;stroke-linecap:round;stroke-width:1.5;"/>
    </g>
    <g id="line2d_31"/>
    <g id="text_21">
     <!-- train -->
     <g style="fill:#262626;" transform="translate(560.55375 144.18375)scale(0.24 -0.24)">
      <use xlink:href="#DejaVuSerif-Bold-74"/>
      <use x="46.191406" xlink:href="#DejaVuSerif-Bold-72"/>
      <use x="98.876953" xlink:href="#DejaVuSerif-Bold-61"/>
      <use x="163.671875" xlink:href="#DejaVuSerif-Bold-69"/>
      <use x="201.660156" xlink:href="#DejaVuSerif-Bold-6e"/>
     </g>
    </g>
   </g>
  </g>
 </g>
 <defs>
  <clipPath id="pe40ea8d385">
   <rect height="443.52" width="558" x="90" y="69.12"/>
  </clipPath>
 </defs>
</svg>
